<svg width="708" height="102" viewBox="0 0 708 102" fill="none" xmlns="http://www.w3.org/2000/svg">
<g filter="url(#filter0_d_28_2)">
<path d="M13.916 72.74C12.0413 72.74 10.2407 72.592 8.514 72.296C6.78733 72.0493 5.52933 71.7287 4.74 71.334V62.602C5.628 62.9473 6.68867 63.2433 7.922 63.49C9.15533 63.7367 10.4133 63.86 11.696 63.86C14.4587 63.86 16.4567 63.416 17.69 62.528C18.9727 61.5907 19.614 59.9133 19.614 57.496V18.72H31.01V58.014C31.01 62.9473 29.5547 66.6473 26.644 69.114C23.7333 71.5313 19.4907 72.74 13.916 72.74ZM64.8344 72.74C60.8877 72.74 57.237 72.074 53.8824 70.742C50.577 69.41 47.691 67.5353 45.2244 65.118C42.807 62.6513 40.9077 59.7407 39.5264 56.386C38.1944 52.982 37.5284 49.2327 37.5284 45.138C37.5284 39.7113 38.6877 34.9753 41.0064 30.93C43.325 26.8353 46.5317 23.6533 50.6264 21.384C54.7704 19.1147 59.4817 17.98 64.7604 17.98C70.1377 17.98 74.8737 19.1147 78.9684 21.384C83.063 23.6533 86.2697 26.8353 88.5884 30.93C90.9564 35.0247 92.1404 39.7853 92.1404 45.212C92.1404 49.2573 91.4497 52.982 90.0684 56.386C88.7364 59.7407 86.837 62.6513 84.3704 65.118C81.953 67.5353 79.067 69.41 75.7124 70.742C72.407 72.074 68.781 72.74 64.8344 72.74ZM64.7604 63.712C67.8684 63.712 70.6064 62.9227 72.9744 61.344C75.3424 59.7653 77.1924 57.5947 78.5244 54.832C79.9057 52.02 80.5964 48.764 80.5964 45.064C80.5964 41.4133 79.9304 38.2313 78.5984 35.518C77.2664 32.8047 75.4164 30.708 73.0484 29.228C70.6804 27.748 67.9177 27.008 64.7604 27.008C61.6524 27.008 58.9144 27.748 56.5464 29.228C54.1784 30.708 52.3284 32.8047 50.9964 35.518C49.7137 38.182 49.0724 41.364 49.0724 45.064C49.0724 48.8133 49.7384 52.094 51.0704 54.906C52.4024 57.6687 54.2524 59.8393 56.6204 61.418C58.9884 62.9473 61.7017 63.712 64.7604 63.712ZM135.525 72.666C128.619 72.666 123.093 71.1367 118.949 68.078C114.805 64.97 112.388 60.604 111.697 54.98H122.649C122.995 57.8413 124.376 60.1107 126.793 61.788C129.211 63.416 132.294 64.23 136.043 64.23C139.102 64.23 141.445 63.6873 143.073 62.602C144.751 61.5167 145.589 60.0613 145.589 58.236C145.589 56.5093 145.096 55.128 144.109 54.092C143.123 53.0067 141.421 52.1433 139.003 51.502L129.087 48.764C124.006 47.3333 120.281 45.3847 117.913 42.918C115.595 40.402 114.435 37.2693 114.435 33.52C114.435 30.3133 115.249 27.5507 116.877 25.232C118.555 22.864 120.898 21.0633 123.907 19.83C126.917 18.5473 130.444 17.906 134.489 17.906C140.705 17.906 145.663 19.386 149.363 22.346C153.063 25.2567 155.16 29.1293 155.653 33.964H144.701C144.208 31.3493 142.999 29.4253 141.075 28.192C139.201 26.9587 136.783 26.342 133.823 26.342C131.258 26.342 129.211 26.8353 127.681 27.822C126.152 28.8087 125.387 30.1407 125.387 31.818C125.387 33.1007 125.807 34.2847 126.645 35.37C127.484 36.406 129.235 37.294 131.899 38.034L141.815 40.772C147.045 42.2027 150.794 44.176 153.063 46.692C155.382 49.1587 156.541 52.2913 156.541 56.09C156.541 61.418 154.691 65.5127 150.991 68.374C147.291 71.2353 142.136 72.666 135.525 72.666ZM162.635 72V18.72H180.395L195.195 70.076H188.757L203.557 18.72H221.391V72H210.143V21.902H212.067L197.637 72H185.871L171.589 22.346H173.439V72H162.635ZM229.498 72V18.72H240.894V72H229.498ZM264.493 72V27.452H247.103V18.72H293.279V27.452H275.889V72H264.493ZM299.485 72V18.72H310.881V72H299.485ZM333.969 72V18.72H345.365V72H333.969ZM304.813 39.884H339.149V48.616H304.813V39.884Z" fill="#F7F7F7"/>
</g>
<path d="M409.66 34.35V33.51H415.57C419.51 33.53 421.61 33.56 421.87 33.6C422.23 33.66 422.62 33.74 423.04 33.84C424.94 34.4 426.3 35.46 427.12 37.02C427.5 37.74 427.71 38.49 427.75 39.27C427.77 40.09 427.6 40.87 427.24 41.61C426.5 43.15 425.2 44.23 423.34 44.85C423.1 44.93 422.87 45 422.65 45.06C422.15 45.18 421.32 45.25 420.16 45.27C419.46 45.27 419.04 45.27 418.9 45.27H416.17V48.66C416.17 50.94 416.18 52.09 416.2 52.11C416.28 52.25 417.02 52.32 418.42 52.32H419.26V53.16V54H418.93L416.53 53.94C415.15 53.92 413.77 53.92 412.39 53.94L409.99 54H409.66V53.16V52.32H410.5C411.9 52.32 412.64 52.25 412.72 52.11V35.4C412.64 35.26 411.9 35.19 410.5 35.19H409.66V34.35ZM420.97 35.25C420.83 35.23 420.07 35.21 418.69 35.19C417.17 35.19 416.35 35.22 416.23 35.28C416.15 35.32 416.1 35.57 416.08 36.03C416.08 36.41 416.08 37.6 416.08 39.6V43.74H418.36C420.02 43.72 421.06 43.66 421.48 43.56C422.68 43.3 423.42 42.68 423.7 41.7C423.82 41.34 423.88 40.6 423.88 39.48C423.9 38.5 423.86 37.79 423.76 37.35C423.62 36.81 423.36 36.38 422.98 36.06C422.5 35.66 421.83 35.39 420.97 35.25ZM430.08 34.35V33.51H430.41L432.81 33.57C434.19 33.59 435.57 33.59 436.95 33.57L439.35 33.51H439.68V34.35V35.19H438.84C437.44 35.19 436.7 35.26 436.62 35.4C436.6 35.42 436.59 36.61 436.59 38.97V42.51H440.67H444.72V38.97C444.72 36.61 444.71 35.42 444.69 35.4C444.61 35.26 443.87 35.19 442.47 35.19H441.63V34.35V33.51H441.96L444.36 33.57C445.74 33.59 447.12 33.59 448.5 33.57L450.9 33.51H451.23V34.35V35.19H450.39C448.99 35.19 448.25 35.26 448.17 35.4V52.11C448.25 52.25 448.99 52.32 450.39 52.32H451.23V53.16V54H450.9L448.5 53.94C447.12 53.92 445.74 53.92 444.36 53.94L441.96 54H441.63V53.16V52.32H442.47C443.87 52.32 444.61 52.25 444.69 52.11C444.71 52.09 444.72 50.76 444.72 48.12V44.19H440.67H436.59V48.12C436.59 50.76 436.6 52.09 436.62 52.11C436.7 52.25 437.44 52.32 438.84 52.32H439.68V53.16V54H439.35L436.95 53.94C435.57 53.92 434.19 53.92 432.81 53.94L430.41 54H430.08V53.16V52.32H430.92C432.32 52.32 433.06 52.25 433.14 52.11V35.4C433.06 35.26 432.32 35.19 430.92 35.19H430.08V34.35ZM462.78 32.88C465.24 32.66 467.49 33.37 469.53 35.01C469.97 35.35 470.49 35.87 471.09 36.57C472.41 38.21 473.22 40.19 473.52 42.51C473.6 43.17 473.61 43.95 473.55 44.85C473.53 44.91 473.52 44.97 473.52 45.03C473.24 47.39 472.4 49.41 471 51.09C469.22 53.19 467.04 54.37 464.46 54.63C463.66 54.69 462.87 54.66 462.09 54.54C459.55 54.12 457.46 52.84 455.82 50.7C454.74 49.26 454.05 47.63 453.75 45.81C453.65 45.31 453.6 44.64 453.6 43.8C453.6 43 453.66 42.29 453.78 41.67C454 40.35 454.43 39.14 455.07 38.04C455.35 37.56 455.68 37.07 456.06 36.57C456.68 35.85 457.21 35.33 457.65 35.01C459.15 33.77 460.86 33.06 462.78 32.88ZM464.43 34.41C463.85 34.35 463.38 34.34 463.02 34.38C461.2 34.6 459.78 35.56 458.76 37.26C458.64 37.46 458.53 37.67 458.43 37.89C457.93 38.93 457.61 40.22 457.47 41.76C457.39 42.44 457.38 43.43 457.44 44.73C457.46 44.89 457.47 45.01 457.47 45.09C457.61 46.77 457.93 48.18 458.43 49.32C459.31 51.3 460.64 52.52 462.42 52.98C462.5 53 462.59 53.02 462.69 53.04C463.27 53.16 463.86 53.16 464.46 53.04C466.28 52.68 467.66 51.52 468.6 49.56C468.64 49.48 468.68 49.4 468.72 49.32C469.22 48.18 469.54 46.77 469.68 45.09C469.76 44.37 469.77 43.37 469.71 42.09C469.69 41.95 469.68 41.84 469.68 41.76C469.54 39.92 469.11 38.42 468.39 37.26C467.43 35.66 466.11 34.71 464.43 34.41ZM476.92 33.87V33.69H486.07H495.25V33.87C495.27 33.91 495.37 35.1 495.55 37.44C495.69 39.68 495.78 40.87 495.82 41.01V41.19H495.07C494.57 41.19 494.32 41.18 494.32 41.16L494.26 40.44C494.12 38.72 493.88 37.53 493.54 36.87C493.18 36.17 492.46 35.71 491.38 35.49C490.9 35.41 490.18 35.37 489.22 35.37C488.4 35.39 487.95 35.45 487.87 35.55L487.81 35.61V43.86L487.84 52.08L487.96 52.17C488.14 52.25 488.98 52.3 490.48 52.32H492.16V53.16V54H491.77L488.74 53.94C486.98 53.92 485.22 53.92 483.46 53.94L480.43 54H480.04V53.16V52.32H481.72C483.22 52.3 484.06 52.25 484.24 52.17L484.39 52.08V43.86V35.61L484.33 35.55C484.25 35.45 483.87 35.39 483.19 35.37H482.98C482 35.37 481.28 35.41 480.82 35.49C479.96 35.67 479.32 36 478.9 36.48C478.5 36.94 478.21 37.87 478.03 39.27C477.91 39.99 477.85 40.62 477.85 41.16C477.85 41.18 477.6 41.19 477.1 41.19H476.35V41.01C476.37 40.97 476.47 39.78 476.65 37.44C476.79 35.2 476.88 34.01 476.92 33.87ZM507.78 32.88C510.24 32.66 512.49 33.37 514.53 35.01C514.97 35.35 515.49 35.87 516.09 36.57C517.41 38.21 518.22 40.19 518.52 42.51C518.6 43.17 518.61 43.95 518.55 44.85C518.53 44.91 518.52 44.97 518.52 45.03C518.24 47.39 517.4 49.41 516 51.09C514.22 53.19 512.04 54.37 509.46 54.63C508.66 54.69 507.87 54.66 507.09 54.54C504.55 54.12 502.46 52.84 500.82 50.7C499.74 49.26 499.05 47.63 498.75 45.81C498.65 45.31 498.6 44.64 498.6 43.8C498.6 43 498.66 42.29 498.78 41.67C499 40.35 499.43 39.14 500.07 38.04C500.35 37.56 500.68 37.07 501.06 36.57C501.68 35.85 502.21 35.33 502.65 35.01C504.15 33.77 505.86 33.06 507.78 32.88ZM509.43 34.41C508.85 34.35 508.38 34.34 508.02 34.38C506.2 34.6 504.78 35.56 503.76 37.26C503.64 37.46 503.53 37.67 503.43 37.89C502.93 38.93 502.61 40.22 502.47 41.76C502.39 42.44 502.38 43.43 502.44 44.73C502.46 44.89 502.47 45.01 502.47 45.09C502.61 46.77 502.93 48.18 503.43 49.32C504.31 51.3 505.64 52.52 507.42 52.98C507.5 53 507.59 53.02 507.69 53.04C508.27 53.16 508.86 53.16 509.46 53.04C511.28 52.68 512.66 51.52 513.6 49.56C513.64 49.48 513.68 49.4 513.72 49.32C514.22 48.18 514.54 46.77 514.68 45.09C514.76 44.37 514.77 43.37 514.71 42.09C514.69 41.95 514.68 41.84 514.68 41.76C514.54 39.92 514.11 38.42 513.39 37.26C512.43 35.66 511.11 34.71 509.43 34.41ZM531.55 32.88C532.07 32.84 532.58 32.84 533.08 32.88C534.74 33.04 536.15 33.72 537.31 34.92C537.47 35.06 537.56 35.14 537.58 35.16L538.51 34.02C539.07 33.36 539.4 32.98 539.5 32.88C539.52 32.86 539.63 32.85 539.83 32.85C539.99 32.85 540.1 32.88 540.16 32.94L540.25 33.03V37.29V41.52L540.16 41.61L540.07 41.7H539.41C538.93 41.7 538.67 41.66 538.63 41.58C538.61 41.54 538.57 41.36 538.51 41.04C538.17 38.32 537.21 36.4 535.63 35.28C535.13 34.94 534.59 34.71 534.01 34.59C533.59 34.51 533.01 34.51 532.27 34.59C530.51 34.83 529.08 35.5 527.98 36.6C527 37.58 526.35 38.86 526.03 40.44C525.87 41.26 525.79 42.36 525.79 43.74C525.79 45.14 525.87 46.24 526.03 47.04C526.47 49.16 527.47 50.73 529.03 51.75C530.15 52.51 531.47 52.92 532.99 52.98C534.53 53.04 535.65 52.61 536.35 51.69C536.53 51.47 536.66 51.24 536.74 51L536.8 50.76L536.83 49.26V47.73L536.77 47.67C536.73 47.65 536.65 47.62 536.53 47.58C536.29 47.52 535.47 47.49 534.07 47.49H533.08V46.65V45.81H533.44L536.17 45.87C537.75 45.89 539.09 45.89 540.19 45.87L542.08 45.81H542.32V46.65V47.49H541.51C540.83 47.51 540.44 47.57 540.34 47.67L540.25 47.73V50.79V53.82L540.16 53.91C540.06 54.01 539.88 53.99 539.62 53.85C538.9 53.41 538.36 53.03 538 52.71L537.79 52.5L537.64 52.68C537.32 53.1 536.86 53.46 536.26 53.76C534.52 54.68 532.52 54.9 530.26 54.42C530.14 54.4 530.03 54.38 529.93 54.36C528.11 53.88 526.52 52.97 525.16 51.63C524.34 50.81 523.67 49.89 523.15 48.87C521.75 46.11 521.51 43.27 522.43 40.35C522.63 39.77 522.87 39.2 523.15 38.64C524.33 36.3 526.11 34.63 528.49 33.63C528.95 33.43 529.43 33.27 529.93 33.15C530.51 33.01 531.05 32.92 531.55 32.88ZM544.484 34.35V33.51H549.824C553.564 33.53 555.604 33.57 555.944 33.63C555.984 33.65 556.084 33.67 556.244 33.69C558.064 34.03 559.524 34.75 560.624 35.85C561.384 36.61 561.864 37.45 562.064 38.37C562.144 38.83 562.144 39.32 562.064 39.84C561.844 40.84 561.284 41.71 560.384 42.45C559.724 43.01 558.964 43.45 558.104 43.77L557.774 43.92L558.014 44.04C559.414 44.9 560.254 46.03 560.534 47.43L560.834 49.08C560.994 50.16 561.094 50.76 561.134 50.88C561.414 52.28 561.934 53.05 562.694 53.19C562.794 53.21 562.904 53.22 563.024 53.22C563.224 53.22 563.364 53.2 563.444 53.16C563.944 52.94 564.224 52.35 564.284 51.39C564.304 51.09 564.384 50.92 564.524 50.88C564.604 50.86 564.774 50.85 565.034 50.85C565.494 50.85 565.744 50.93 565.784 51.09C565.784 51.17 565.784 51.29 565.784 51.45C565.704 52.73 565.224 53.67 564.344 54.27C564.084 54.43 563.814 54.54 563.534 54.6C562.794 54.76 561.774 54.67 560.474 54.33C560.374 54.31 560.284 54.29 560.204 54.27C558.584 53.75 557.604 52.75 557.264 51.27C557.224 51.11 557.194 50.39 557.174 49.11C557.154 47.81 557.134 47.11 557.114 47.01C556.934 46.31 556.644 45.76 556.244 45.36C555.884 44.96 555.434 44.69 554.894 44.55C554.754 44.51 554.054 44.48 552.794 44.46H550.904V48.27C550.904 50.81 550.914 52.09 550.934 52.11C551.014 52.25 551.754 52.32 553.154 52.32H553.994V53.16V54H553.664C553.684 54 552.894 53.98 551.294 53.94C549.914 53.92 548.544 53.92 547.184 53.94C545.584 53.98 544.794 54 544.814 54H544.484V53.16V52.32H545.324C546.724 52.32 547.464 52.25 547.544 52.11V35.4C547.464 35.26 546.724 35.19 545.324 35.19H544.484V34.35ZM554.774 35.22H551.324C551.124 35.24 551.004 35.29 550.964 35.37C550.924 35.41 550.904 36.7 550.904 39.24V43.05H552.854C554.254 43.03 555.024 43.01 555.164 42.99C556.224 42.81 557.004 42.47 557.504 41.97C557.744 41.73 557.934 41.42 558.074 41.04C558.214 40.64 558.274 39.98 558.254 39.06C558.254 38.34 558.234 37.88 558.194 37.68C558.094 37.08 557.874 36.6 557.534 36.24C556.934 35.64 556.014 35.3 554.774 35.22ZM576.414 32.58C576.474 32.54 576.714 32.52 577.134 32.52C577.574 32.52 577.824 32.54 577.884 32.58C577.944 32.6 578.004 32.64 578.064 32.7C578.104 32.76 579.174 35.99 581.274 42.39C583.394 48.83 584.464 52.06 584.484 52.08C584.564 52.2 584.854 52.27 585.354 52.29C585.554 52.31 585.984 52.32 586.644 52.32H587.424V53.16V54H587.154C587.174 54 586.464 53.98 585.024 53.94C583.804 53.92 582.504 53.92 581.124 53.94L578.724 54H578.394V53.16V52.32H578.874C579.954 52.32 580.614 52.26 580.854 52.14C580.894 52.1 580.914 52.06 580.914 52.02C580.914 52.06 580.724 51.47 580.344 50.25C580.004 49.23 579.794 48.58 579.714 48.3L579.654 48.12H576.264H572.904L572.394 49.65L571.884 51.27C571.864 51.43 571.934 51.59 572.094 51.75C572.434 52.07 573.004 52.26 573.804 52.32H574.134V53.16V54H573.864L571.914 53.94C570.754 53.92 569.704 53.92 568.764 53.94C567.664 53.98 567.104 54 567.084 54H566.874V53.16V52.32H567.174C567.814 52.32 568.394 52.25 568.914 52.11C569.534 51.91 569.914 51.65 570.054 51.33C570.074 51.29 571.114 48.17 573.174 41.97C575.174 35.89 576.194 32.8 576.234 32.7C576.294 32.64 576.354 32.6 576.414 32.58ZM577.674 42.15L576.294 37.89C576.294 37.91 575.354 40.74 573.474 46.38C573.474 46.42 574.404 46.44 576.264 46.44C578.144 46.44 579.084 46.43 579.084 46.41L577.674 42.15ZM589.074 34.35V33.51H594.984C598.924 33.53 601.024 33.56 601.284 33.6C601.644 33.66 602.034 33.74 602.454 33.84C604.354 34.4 605.714 35.46 606.534 37.02C606.914 37.74 607.124 38.49 607.164 39.27C607.184 40.09 607.014 40.87 606.654 41.61C605.914 43.15 604.614 44.23 602.754 44.85C602.514 44.93 602.284 45 602.064 45.06C601.564 45.18 600.734 45.25 599.574 45.27C598.874 45.27 598.454 45.27 598.314 45.27H595.584V48.66C595.584 50.94 595.594 52.09 595.614 52.11C595.694 52.25 596.434 52.32 597.834 52.32H598.674V53.16V54H598.344L595.944 53.94C594.564 53.92 593.184 53.92 591.804 53.94L589.404 54H589.074V53.16V52.32H589.914C591.314 52.32 592.054 52.25 592.134 52.11V35.4C592.054 35.26 591.314 35.19 589.914 35.19H589.074V34.35ZM600.384 35.25C600.244 35.23 599.484 35.21 598.104 35.19C596.584 35.19 595.764 35.22 595.644 35.28C595.564 35.32 595.514 35.57 595.494 36.03C595.494 36.41 595.494 37.6 595.494 39.6V43.74H597.774C599.434 43.72 600.474 43.66 600.894 43.56C602.094 43.3 602.834 42.68 603.114 41.7C603.234 41.34 603.294 40.6 603.294 39.48C603.314 38.5 603.274 37.79 603.174 37.35C603.034 36.81 602.774 36.38 602.394 36.06C601.914 35.66 601.244 35.39 600.384 35.25ZM609.494 34.35V33.51H609.824L612.224 33.57C613.604 33.59 614.984 33.59 616.364 33.57L618.764 33.51H619.094V34.35V35.19H618.254C616.854 35.19 616.114 35.26 616.034 35.4C616.014 35.42 616.004 36.61 616.004 38.97V42.51H620.084H624.134V38.97C624.134 36.61 624.124 35.42 624.104 35.4C624.024 35.26 623.284 35.19 621.884 35.19H621.044V34.35V33.51H621.374L623.774 33.57C625.154 33.59 626.534 33.59 627.914 33.57L630.314 33.51H630.644V34.35V35.19H629.804C628.404 35.19 627.664 35.26 627.584 35.4V52.11C627.664 52.25 628.404 52.32 629.804 52.32H630.644V53.16V54H630.314L627.914 53.94C626.534 53.92 625.154 53.92 623.774 53.94L621.374 54H621.044V53.16V52.32H621.884C623.284 52.32 624.024 52.25 624.104 52.11C624.124 52.09 624.134 50.76 624.134 48.12V44.19H620.084H616.004V48.12C616.004 50.76 616.014 52.09 616.034 52.11C616.114 52.25 616.854 52.32 618.254 52.32H619.094V53.16V54H618.764L616.364 53.94C614.984 53.92 613.604 53.92 612.224 53.94L609.824 54H609.494V53.16V52.32H610.334C611.734 52.32 612.474 52.25 612.554 52.11V35.4C612.474 35.26 611.734 35.19 610.334 35.19H609.494V34.35ZM631.664 34.35V33.51H631.934L634.034 33.57C635.254 33.59 636.574 33.59 637.994 33.57L640.484 33.51H640.814V34.35V35.19H640.154C639.254 35.23 638.784 35.31 638.744 35.43L643.484 43.59L643.544 43.68L645.674 39.99C647.214 37.41 647.944 36.16 647.864 36.24C647.884 36.14 647.884 36.02 647.864 35.88C647.724 35.48 647.284 35.25 646.544 35.19H646.244V34.35V33.51H646.514C646.494 33.51 647.164 33.53 648.524 33.57C649.644 33.59 650.684 33.59 651.644 33.57L653.264 33.51H653.474V34.35V35.19H652.934C651.534 35.25 650.564 35.52 650.024 36C649.904 36.12 648.904 37.79 647.024 41.01L644.234 45.81V48.93C644.234 51.01 644.254 52.07 644.294 52.11C644.314 52.15 644.384 52.19 644.504 52.23C644.684 52.29 645.354 52.32 646.514 52.32H647.324V53.16V54H646.994C647.014 54 646.224 53.98 644.624 53.94C643.264 53.92 641.894 53.92 640.514 53.94C638.914 53.98 638.124 54 638.144 54H637.814V53.16V52.32H638.654C640.054 52.32 640.794 52.25 640.874 52.11C640.894 52.09 640.904 51.03 640.904 48.93V45.81L637.904 40.65C635.904 37.23 634.884 35.5 634.844 35.46C634.744 35.3 634.194 35.21 633.194 35.19C633.094 35.19 632.984 35.19 632.864 35.19H631.664V34.35Z" fill="white"/>
<g filter="url(#filter1_d_28_2)">
<path d="M702.5 45C702.5 50.3973 698.344 55.9256 689.845 61.2445C681.424 66.5147 669.138 71.316 653.824 75.3698C623.218 83.4714 580.853 88.5 534 88.5C487.147 88.5 444.782 83.4714 414.176 75.3698C398.862 71.316 386.576 66.5147 378.155 61.2445C369.656 55.9256 365.5 50.3973 365.5 45C365.5 39.6027 369.656 34.0744 378.155 28.7555C386.576 23.4853 398.862 18.684 414.176 14.6303C444.782 6.52861 487.147 1.5 534 1.5C580.853 1.5 623.218 6.52861 653.824 14.6303C669.138 18.684 681.424 23.4853 689.845 28.7555C698.344 34.0744 702.5 39.6027 702.5 45Z" stroke="#F7F7F7" stroke-width="3" shape-rendering="crispEdges"/>
</g>
<defs>
<filter id="filter0_d_28_2" x="0.740234" y="17.906" width="348.625" height="62.834" filterUnits="userSpaceOnUse" color-interpolation-filters="sRGB">
<feFlood flood-opacity="0" result="BackgroundImageFix"/>
<feColorMatrix in="SourceAlpha" type="matrix" values="0 0 0 0 0 0 0 0 0 0 0 0 0 0 0 0 0 0 127 0" result="hardAlpha"/>
<feOffset dy="4"/>
<feGaussianBlur stdDeviation="2"/>
<feComposite in2="hardAlpha" operator="out"/>
<feColorMatrix type="matrix" values="0 0 0 0 0 0 0 0 0 0 0 0 0 0 0 0 0 0 0.25 0"/>
<feBlend mode="normal" in2="BackgroundImageFix" result="effect1_dropShadow_28_2"/>
<feBlend mode="normal" in="SourceGraphic" in2="effect1_dropShadow_28_2" result="shape"/>
</filter>
<filter id="filter1_d_28_2" x="360" y="0" width="348" height="98" filterUnits="userSpaceOnUse" color-interpolation-filters="sRGB">
<feFlood flood-opacity="0" result="BackgroundImageFix"/>
<feColorMatrix in="SourceAlpha" type="matrix" values="0 0 0 0 0 0 0 0 0 0 0 0 0 0 0 0 0 0 127 0" result="hardAlpha"/>
<feOffset dy="4"/>
<feGaussianBlur stdDeviation="2"/>
<feComposite in2="hardAlpha" operator="out"/>
<feColorMatrix type="matrix" values="0 0 0 0 0 0 0 0 0 0 0 0 0 0 0 0 0 0 0.25 0"/>
<feBlend mode="normal" in2="BackgroundImageFix" result="effect1_dropShadow_28_2"/>
<feBlend mode="normal" in="SourceGraphic" in2="effect1_dropShadow_28_2" result="shape"/>
</filter>
</defs>
</svg>
