<svg width="325" height="80" viewBox="0 0 325 80" fill="none" xmlns="http://www.w3.org/2000/svg">
<g filter="url(#filter0_d_25_42)">
<path d="M17.4574 69.7682L16.4308 67.7863L21.6623 64.8832C23.2886 63.9806 24.518 62.8731 25.3504 61.5607C26.1733 60.2299 26.5873 58.7834 26.5924 57.2212C26.5975 55.6591 26.1866 54.0797 25.3597 52.4832C24.5422 50.905 23.5131 49.7042 22.2722 48.8807C21.0314 48.0572 19.6574 47.6502 18.1501 47.6598C16.6609 47.6593 15.0941 48.1153 13.4496 49.0279L8.21819 51.931L7.19162 49.9491L12.4231 47.046C14.4651 45.9128 16.4589 45.3379 18.4046 45.3214C20.3407 45.2865 22.1094 45.7816 23.7106 46.8067C25.3203 47.8035 26.6385 49.2928 27.6651 51.2747C28.6917 53.2566 29.17 55.2356 29.1001 57.2117C29.0207 59.1695 28.4407 60.9916 27.36 62.6781C26.2879 64.3362 24.7399 65.7269 22.716 66.85L17.4574 69.7682ZM16.1292 70.5053L5.86342 50.6862L8.08611 49.4527L18.3519 69.2718L16.1292 70.5053Z" fill="white"/>
<path d="M44.5615 56.0714C43.6186 56.4941 42.6997 56.6798 41.8047 56.6283C40.9017 56.5577 40.0951 56.2627 39.385 55.7434C38.6669 55.205 38.1124 54.4687 37.7214 53.5345L33.4726 43.3828L35.7355 42.3681L39.733 51.9193C40.1958 53.0251 40.8069 53.736 41.5663 54.0521C42.3446 54.3597 43.2334 54.2895 44.2329 53.8413C45.138 53.4354 45.8517 52.8663 46.3739 52.1341C46.8961 51.4018 47.1996 50.5751 47.2845 49.654C47.3802 48.7054 47.2245 47.745 46.8176 46.7727L48.6335 50.068C48.6169 51.366 48.2405 52.5537 47.5044 53.631C46.7682 54.7083 45.7873 55.5217 44.5615 56.0714ZM49.7597 53.4008L48.3235 49.9693L48.182 50.0327L43.5143 38.8801L45.7772 37.8654L51.8812 52.4496L49.7597 53.4008Z" fill="white"/>
<path d="M60.1654 49.0746L55.1497 34.0813L57.3384 33.2969L58.5186 36.8247L58.6645 36.7724L62.4999 48.2379L60.1654 49.0746ZM70.8169 45.2571L67.5322 35.438C67.1519 34.3012 66.5846 33.5497 65.8303 33.1836C65.076 32.8174 64.1443 32.833 63.0354 33.2305C62.0627 33.5791 61.269 34.105 60.6545 34.8081C60.0595 35.5042 59.6758 36.3112 59.5035 37.2289C59.3506 38.1397 59.4447 39.1047 59.7856 40.1238L58.2163 36.7026C58.3484 35.4041 58.8218 34.2468 59.6366 33.2304C60.4708 32.2072 61.5493 31.4584 62.8723 30.9843C64.4287 30.4265 65.8246 30.431 67.06 30.9979C68.3083 31.5382 69.1751 32.5335 69.6603 33.9839L73.1515 44.4204L70.8169 45.2571Z" fill="white"/>
<path d="M92.2688 38.8566L91.3579 35.2818L91.68 35.2903C91.5971 36.5552 91.134 37.667 90.2907 38.6254C89.4674 39.5785 88.3579 40.2455 86.9623 40.6264C85.5866 41.002 84.2962 41.0008 83.0911 40.6229C81.9059 40.2396 80.8737 39.5361 79.9945 38.5123C79.1352 37.4831 78.504 36.1775 78.1008 34.5954C77.6926 32.9932 77.6245 31.5124 77.8965 30.153C78.1685 28.7936 78.7387 27.6419 79.607 26.698C80.4754 25.7541 81.6074 25.0917 83.003 24.7107C84.4384 24.3188 85.7339 24.34 86.8894 24.7743C88.045 25.2085 88.9654 26.0175 89.6509 27.2013L89.1877 27.392L86.6083 17.2685L89.0007 16.6154L94.5117 38.2443L92.2688 38.8566ZM86.8751 38.4012C88.4103 37.9821 89.4738 37.1349 90.0658 35.8594C90.6726 34.5586 90.7438 32.9969 90.2794 31.1745C89.8253 29.3921 89.0269 28.0999 87.8843 27.298C86.7417 26.4961 85.4128 26.3019 83.8976 26.7155C82.3824 27.1292 81.3288 27.9737 80.7368 29.2491C80.1449 30.5245 80.0836 32.0835 80.5531 33.9259C81.0124 35.7284 81.8033 37.0332 82.9259 37.8406C84.0435 38.628 85.3599 38.8148 86.8751 38.4012Z" fill="white"/>
<path d="M109.075 35.4548C107.593 35.7401 106.222 35.6464 104.961 35.1737C103.697 34.6806 102.63 33.8864 101.761 32.791C100.893 31.6957 100.316 30.3547 100.03 28.7681C99.7452 27.1816 99.8093 25.7277 100.223 24.4064C100.653 23.0609 101.386 21.9411 102.422 21.0471C103.458 20.1531 104.727 19.5615 106.229 19.2722C107.669 18.9948 108.974 19.0697 110.143 19.497C111.332 19.9204 112.313 20.6469 113.086 21.6766C113.879 22.7023 114.414 23.9881 114.692 25.534C114.729 25.7374 114.753 25.9326 114.766 26.1196C114.799 26.3026 114.815 26.51 114.815 26.7415L101.999 29.2097L101.632 27.1654L112.956 24.9846L112.367 26.2659C112.031 24.3945 111.357 23.0407 110.346 22.2042C109.351 21.3435 108.103 21.0578 106.601 21.347C105.059 21.644 103.908 22.4234 103.148 23.6852C102.405 24.9227 102.196 26.4466 102.521 28.2569C102.854 30.1079 103.587 31.5029 104.722 32.4418C105.873 33.3565 107.24 33.6614 108.823 33.3566C109.818 33.1651 110.652 32.7834 111.326 32.2117C111.996 31.6196 112.431 30.8835 112.63 30.0034L114.943 29.5579C114.692 31.0794 114.042 32.3725 112.995 33.437C111.964 34.4773 110.657 35.1499 109.075 35.4548Z" fill="white"/>
<path d="M130.032 32.2444C128.533 32.4183 127.171 32.2226 125.946 31.6574C124.718 31.0717 123.709 30.2005 122.919 29.044C122.128 27.8874 121.646 26.5078 121.473 24.9052C121.299 23.3025 121.465 21.8582 121.97 20.5721C122.493 19.2631 123.304 18.2017 124.4 17.3879C125.497 16.5741 126.805 16.079 128.324 15.9027C129.782 15.7336 131.079 15.9056 132.215 16.4187C133.372 16.9294 134.3 17.7267 135 18.8106C135.72 19.8921 136.164 21.2136 136.333 22.7752C136.356 22.9806 136.367 23.177 136.366 23.3643C136.386 23.5492 136.388 23.7571 136.371 23.9879L123.407 25.4921L123.184 23.4272L134.639 22.098L133.962 23.3312C133.757 21.441 133.179 20.0413 132.228 19.1321C131.296 18.2001 130.07 17.8222 128.551 17.9985C126.991 18.1795 125.787 18.8705 124.94 20.0714C124.112 21.2494 123.796 22.7527 123.994 24.5814C124.197 26.4511 124.832 27.8962 125.898 28.9167C126.983 29.9142 128.326 30.3201 129.928 30.1343C130.934 30.0176 131.793 29.6994 132.506 29.1798C133.216 28.6397 133.702 27.9384 133.962 27.0761L136.302 26.8045C135.945 28.3023 135.206 29.5427 134.086 30.5256C132.984 31.4857 131.633 32.0586 130.032 32.2444Z" fill="white"/>
<path d="M144.883 35.0942L144.815 33.825C145.401 33.5639 145.816 33.178 146.057 32.6674C146.3 32.1775 146.395 31.4372 146.343 30.4466L147.307 30.4847L144.645 30.6365L144.477 27.479L147.603 27.3007L147.737 29.8082C147.807 31.129 147.618 32.2369 147.169 33.1319C146.72 34.0269 145.958 34.681 144.883 35.0942Z" fill="white"/>
<path d="M175.441 30.6881C172.84 30.578 170.79 29.8499 169.292 28.504C167.814 27.159 166.988 25.2934 166.814 22.9072L169.292 23.0121C169.451 24.7358 170.05 26.054 171.09 26.9667C172.129 27.8795 173.599 28.3761 175.498 28.4565C177.109 28.5247 178.329 28.2764 179.158 27.7117C180.008 27.1271 180.457 26.2463 180.503 25.0692C180.543 24.0573 180.296 23.2402 179.762 22.6177C179.228 21.9952 178.381 21.4629 177.219 21.0207L173.523 19.5611C171.65 18.8198 170.277 17.9653 169.405 16.9976C168.534 16.0092 168.127 14.7922 168.184 13.3467C168.232 12.149 168.572 11.1291 169.205 10.2871C169.839 9.42452 170.713 8.76857 171.827 8.31928C172.941 7.87 174.22 7.67596 175.666 7.73715C177.896 7.83157 179.658 8.49573 180.954 9.72963C182.251 10.9429 182.96 12.6277 183.081 14.7841L180.603 14.6792C180.396 13.119 179.884 11.9597 179.066 11.2011C178.268 10.4433 177.085 10.0312 175.516 9.96479C174.029 9.90185 172.861 10.1523 172.011 10.7162C171.162 11.2801 170.715 12.1093 170.672 13.2038C170.635 14.1331 170.895 14.8887 171.451 15.4708C172.007 16.0528 172.886 16.5761 174.088 17.0407L178.028 18.6038C179.739 19.2761 181.008 20.1469 181.834 21.2161C182.661 22.2647 183.044 23.5737 182.982 25.1431C182.909 27.0017 182.211 28.4201 180.89 29.3985C179.591 30.357 177.774 30.7869 175.441 30.6881Z" fill="white"/>
<path d="M195.995 32.453C194.558 32.2839 193.314 31.7837 192.262 30.9524C191.233 30.103 190.457 29.0233 189.936 27.7135C189.437 26.3855 189.275 24.9305 189.448 23.3487C189.622 21.7669 190.094 20.4074 190.863 19.2702C191.653 18.1355 192.641 17.2841 193.826 16.7161C195.031 16.1504 196.342 15.951 197.758 16.1176C198.928 16.2553 199.95 16.6045 200.824 17.1651C201.719 17.7282 202.417 18.4658 202.92 19.3782C203.446 20.2723 203.729 21.2838 203.772 22.4124L201.494 22.1443C201.399 21.1135 201.017 20.2363 200.348 19.5125C199.679 18.7887 198.76 18.3579 197.59 18.2203C196.584 18.1019 195.685 18.2458 194.892 18.6519C194.099 19.0579 193.447 19.6888 192.937 20.5444C192.428 21.4 192.106 22.4338 191.973 23.6458C191.84 24.8579 191.928 25.9503 192.237 26.923C192.546 27.8957 193.041 28.6824 193.724 29.2829C194.427 29.8859 195.281 30.2465 196.287 30.3649C197.416 30.4977 198.394 30.3007 199.221 29.7738C200.05 29.2263 200.623 28.4613 200.939 27.4789L203.217 27.747C202.913 28.814 202.396 29.7312 201.667 30.4986C200.961 31.2479 200.122 31.7942 199.148 32.1374C198.175 32.4807 197.124 32.5859 195.995 32.453Z" fill="white"/>
<path d="M216.305 35.6744C214.783 35.3788 213.509 34.7628 212.482 33.8264C211.454 32.89 210.727 31.7487 210.299 30.4025C209.895 29.0399 209.833 27.5858 210.113 26.0404C210.397 24.4746 210.972 23.1549 211.839 22.0812C212.706 21.0076 213.77 20.2354 215.032 19.7647C216.313 19.298 217.715 19.2124 219.236 19.508C220.778 19.8076 222.055 20.4134 223.065 21.3255C224.096 22.2415 224.818 23.3605 225.229 24.6825C225.66 26.0084 225.734 27.4542 225.45 29.02C225.17 30.5655 224.593 31.8954 223.719 33.0097C222.869 34.1076 221.801 34.9001 220.515 35.3872C219.25 35.8782 217.847 35.9739 216.305 35.6744ZM216.681 33.6002C217.736 33.8052 218.695 33.7283 219.558 33.3697C220.425 32.9908 221.154 32.3852 221.746 31.5529C222.338 30.7205 222.743 29.7045 222.961 28.5047C223.285 26.7153 223.068 25.189 222.31 23.926C221.572 22.667 220.422 21.8857 218.86 21.5822C217.319 21.2827 215.973 21.5791 214.824 22.4717C213.675 23.3642 212.939 24.7052 212.614 26.4947C212.396 27.6944 212.418 28.7932 212.678 29.7911C212.938 30.7889 213.406 31.6271 214.081 32.3056C214.78 32.9677 215.646 33.3992 216.681 33.6002Z" fill="white"/>
<path d="M237.657 40.675C235.959 40.2261 234.814 39.5175 234.223 38.549C233.657 37.5658 233.554 36.3419 233.915 34.8771L237.539 20.1894L240.159 19.9202L236.321 35.4807C236.108 36.3435 236.172 37.0336 236.512 37.5511C236.853 38.0686 237.523 38.4594 238.522 38.7234C238.921 38.829 239.266 38.8987 239.555 38.9325C239.87 38.9515 240.127 38.9447 240.327 38.9119L239.822 40.9586C239.602 40.986 239.298 40.9697 238.908 40.9095C238.534 40.8746 238.117 40.7964 237.657 40.675ZM233.003 24.986L233.508 22.9393L243.608 25.6088L243.104 27.6554L233.003 24.986Z" fill="white"/>
<path d="M246.741 43.0971L253.073 21.6942L255.437 22.4436L249.105 43.8465L246.741 43.0971Z" fill="white"/>
<path d="M267.154 50.3325C267.195 49.972 267.272 49.5702 267.385 49.1271C267.518 48.6913 267.702 48.1423 267.937 47.4801L267.792 47.425L270.323 40.297C270.724 39.1674 270.757 38.2405 270.422 37.5163C270.114 36.7799 269.39 36.195 268.25 35.7614C267.13 35.3352 266.149 35.2273 265.307 35.4375C264.491 35.6356 263.895 36.1387 263.521 36.9467L261.29 36.098C261.898 34.6936 262.898 33.7918 264.29 33.3927C265.681 32.9935 267.265 33.132 269.042 33.808C270.877 34.5061 272.084 35.4623 272.661 36.6767C273.238 37.8911 273.216 39.3747 272.593 41.1275L270.052 48.2847C269.9 48.7132 269.77 49.1721 269.662 49.6616C269.561 50.1316 269.469 50.6381 269.385 51.1812L267.154 50.3325ZM261.98 48.6958C260.454 48.1152 259.369 47.2823 258.724 46.1969C258.105 45.0993 258.027 43.8981 258.49 42.5932C258.954 41.2884 259.757 40.4447 260.902 40.0621C262.046 39.6795 263.52 39.6655 265.324 40.02L270.792 41.1056L270.108 43.0336L265.028 41.9635C263.884 41.7273 262.96 41.7071 262.254 41.903C261.549 42.0989 261.058 42.5863 260.781 43.3653C260.512 44.1249 260.559 44.7949 260.923 45.3755C261.306 45.9634 262 46.4484 263.004 46.8305C264.298 47.3228 265.455 47.4312 266.474 47.1555C267.519 46.8678 268.21 46.2467 268.549 45.2924L268.19 47.5099C267.528 48.3855 266.646 48.9233 265.545 49.1233C264.463 49.3306 263.274 49.1881 261.98 48.6958Z" fill="white"/>
<path d="M276.974 54.4562L283.301 39.9675L285.407 40.9528L283.918 44.3619L284.059 44.4276L279.22 55.5072L276.974 54.4562ZM287.223 59.2513L291.367 49.7626C291.846 48.6641 291.935 47.7132 291.632 46.91C291.329 46.1068 290.644 45.4556 289.577 44.9564C288.641 44.5184 287.717 44.337 286.805 44.4122C285.911 44.496 285.098 44.8109 284.363 45.3569C283.647 45.9116 283.075 46.6814 282.645 47.6662L283.781 44.058C284.739 43.2061 285.85 42.6998 287.115 42.539C288.399 42.3869 289.678 42.6086 290.95 43.2042C292.448 43.9048 293.456 44.9009 293.974 46.1925C294.519 47.474 294.485 48.8154 293.873 50.217L289.469 60.3022L287.223 59.2513Z" fill="white"/>
<path d="M306.958 69.9265L308.68 66.664L308.907 66.8988C308.006 67.7656 306.932 68.2503 305.687 68.353C304.459 68.4658 303.216 68.1661 301.957 67.4541C300.715 66.7522 299.786 65.8352 299.169 64.703C298.57 63.5811 298.294 62.3334 298.341 60.9601C298.407 59.5969 298.821 58.1934 299.583 56.7495C300.354 55.2873 301.29 54.1554 302.391 53.3538C303.491 52.5521 304.669 52.1142 305.922 52.0401C307.176 51.9659 308.433 52.2848 309.692 52.9969C310.987 53.7293 311.907 54.6646 312.451 55.8028C312.995 56.9409 313.12 58.1864 312.826 59.5393L312.366 59.35L317.242 50.1108L319.401 51.3315L308.982 71.0709L306.958 69.9265ZM303.374 65.7638C304.759 66.5471 306.09 66.6823 307.365 66.1693C308.668 65.6482 309.758 64.556 310.636 62.8928C311.494 61.2661 311.779 59.7538 311.489 58.3558C311.199 56.9578 310.37 55.8722 309.003 55.0991C307.636 54.326 306.315 54.196 305.039 54.7089C303.764 55.2219 302.683 56.3192 301.795 58.0007C300.927 59.6456 300.629 61.162 300.901 62.5498C301.183 63.9194 302.007 64.9907 303.374 65.7638Z" fill="white"/>
</g>
<defs>
<filter id="filter0_d_25_42" x="1.86328" y="7.38834" width="321.538" height="71.9567" filterUnits="userSpaceOnUse" color-interpolation-filters="sRGB">
<feFlood flood-opacity="0" result="BackgroundImageFix"/>
<feColorMatrix in="SourceAlpha" type="matrix" values="0 0 0 0 0 0 0 0 0 0 0 0 0 0 0 0 0 0 127 0" result="hardAlpha"/>
<feOffset dy="4"/>
<feGaussianBlur stdDeviation="2"/>
<feComposite in2="hardAlpha" operator="out"/>
<feColorMatrix type="matrix" values="0 0 0 0 0 0 0 0 0 0 0 0 0 0 0 0 0 0 0.25 0"/>
<feBlend mode="normal" in2="BackgroundImageFix" result="effect1_dropShadow_25_42"/>
<feBlend mode="normal" in="SourceGraphic" in2="effect1_dropShadow_25_42" result="shape"/>
</filter>
</defs>
</svg>
