<svg width="240" height="80" viewBox="0 0 240 80" fill="none" xmlns="http://www.w3.org/2000/svg">
<g filter="url(#filter0_d_25_79)">
<path d="M5.33788 26.645L18.0375 8.29008L25.3285 13.3346C26.6371 14.2401 27.6033 15.2227 28.2271 16.2826C28.8508 17.3425 29.1243 18.4364 29.0475 19.5644C28.9877 20.7042 28.5698 21.8349 27.7937 22.9566C27.0176 24.0783 26.1009 24.8766 25.0436 25.3513C24.0151 25.8208 22.8891 25.9591 21.6656 25.766C20.4421 25.5729 19.1761 25.0236 17.8674 24.1182L12.106 20.1319L13.376 18.2964L19.0609 22.2297C20.4205 23.1705 21.6604 23.576 22.7805 23.4462C23.9294 23.3113 24.9037 22.666 25.7033 21.5103C26.5029 20.3546 26.7601 19.2383 26.4748 18.1614C26.1896 17.0844 25.3586 16.0697 23.982 15.1172L18.8579 11.5719L7.4283 28.0913L5.33788 26.645Z" fill="white"/>
<path d="M26.099 40.1494L36.3894 20.3431L38.5901 21.4865L28.2997 41.2928L26.099 40.1494ZM36.1397 45.3661L40.9133 36.1781C41.4659 35.1145 41.6145 34.1786 41.359 33.3704C41.1035 32.5623 40.453 31.8866 39.4077 31.3435C38.4907 30.8671 37.5698 30.6448 36.645 30.6767C35.7385 30.7181 34.8977 30.9916 34.1226 31.4972C33.3659 32.0123 32.7398 32.7467 32.2444 33.7004L33.6161 30.186C34.636 29.3884 35.7892 28.9395 37.0756 28.8393C38.3803 28.7486 39.6562 29.0273 40.9033 29.6752C42.3704 30.4374 43.325 31.469 43.767 32.77C44.2368 34.0621 44.1192 35.3867 43.4141 36.7438L38.3404 46.5095L36.1397 45.3661Z" fill="white"/>
<path d="M52.8861 52.8194C51.4344 52.2762 50.2837 51.4593 49.434 50.369C48.5842 49.2787 48.067 48.0369 47.8822 46.6438C47.7241 45.2385 47.9203 43.8004 48.4708 42.3294C49.0286 40.839 49.8309 39.6387 50.8776 38.7285C51.9244 37.8184 53.1129 37.2371 54.4431 36.9846C55.7926 36.7394 57.1932 36.8885 58.6449 37.4318C60.1159 37.9823 61.2703 38.7894 62.1079 39.8532C62.9648 40.9242 63.4797 42.1429 63.6523 43.5095C63.8443 44.8833 63.6614 46.3153 63.1036 47.8057C62.5531 49.2767 61.7472 50.4867 60.6859 51.4356C59.6513 52.3724 58.4556 52.973 57.0988 53.2376C55.7613 53.5093 54.3571 53.37 52.8861 52.8194ZM53.6249 50.8452C54.6314 51.2219 55.593 51.3059 56.5096 51.0973C57.4334 50.8693 58.2616 50.3959 58.994 49.677C59.7264 48.9581 60.3064 48.0277 60.7337 46.8857C61.3712 45.1824 61.427 43.6476 60.9013 42.2813C60.3948 40.9222 59.3964 39.9638 57.906 39.406C56.435 38.8555 55.0527 38.9229 53.759 39.6083C52.4654 40.2937 51.4999 41.488 50.8624 43.1913C50.435 44.3333 50.2616 45.4159 50.3421 46.439C50.4226 47.4621 50.7364 48.3629 51.2836 49.1414C51.8573 49.9078 52.6378 50.4757 53.6249 50.8452Z" fill="white"/>
<path d="M74.6279 59.4832C72.9279 59.0405 71.7868 58.3377 71.2047 57.3746C70.6478 56.3967 70.5594 55.1778 70.9396 53.7178L74.7513 39.0779L77.3857 38.8028L73.3473 54.3127C73.1234 55.1727 73.1794 55.86 73.5152 56.3745C73.8511 56.8891 74.519 57.2765 75.519 57.5369C75.919 57.6411 76.2642 57.7096 76.5546 57.7425C76.8702 57.7606 77.1285 57.7531 77.3293 57.72L76.7981 59.7599C76.5773 59.7879 76.2717 59.7724 75.8813 59.7134C75.5057 59.6797 75.0879 59.6029 74.6279 59.4832ZM70.1407 43.8677L70.6719 41.8277L80.7818 44.46L80.2506 46.5L70.1407 43.8677Z" fill="white"/>
<path d="M91.012 62.71C89.4797 62.4763 88.1858 61.9132 87.1303 61.0206C86.0748 60.1279 85.3136 59.0188 84.8468 57.6933C84.4034 56.3505 84.3002 54.9027 84.5369 53.35C84.7768 51.7768 85.3155 50.4374 86.1531 49.3317C86.9907 48.226 88.0345 47.413 89.2845 46.8928C90.555 46.3758 91.9563 46.2341 93.4886 46.4677C95.0414 46.7045 96.3368 47.2574 97.375 48.1265C98.4336 48.9987 99.1877 50.0858 99.6372 51.3878C100.107 52.6929 100.222 54.132 99.9824 55.7051C99.7456 57.2578 99.2054 58.6075 98.3615 59.7541C97.5413 60.8833 96.4944 61.7167 95.2208 62.2542C93.9676 62.7948 92.5647 62.9467 91.012 62.71ZM91.3298 60.6261C92.3921 60.7881 93.3505 60.6729 94.2047 60.2805C95.0621 59.8677 95.7753 59.2343 96.3446 58.3803C96.9138 57.5264 97.2903 56.4967 97.4741 55.2913C97.7483 53.4934 97.4878 51.9799 96.6926 50.7506C95.918 49.5245 94.744 48.7915 93.1709 48.5516C91.6182 48.3149 90.2791 48.6647 89.1538 49.6011C88.0284 50.5375 87.3287 51.9046 87.0546 53.7025C86.8707 54.9079 86.9233 56.003 87.2121 56.9878C87.501 57.9726 87.9931 58.7898 88.6885 59.4394C89.4074 60.0716 90.2878 60.4672 91.3298 60.6261Z" fill="white"/>
<path d="M113.531 71.126C111.651 71.0691 110.094 70.5774 108.861 69.651C107.648 68.7459 106.929 67.5663 106.704 66.1121L109.059 66.1834C109.261 67.0166 109.748 67.6826 110.518 68.1815C111.309 68.7016 112.386 68.9824 113.749 69.0236C115.361 69.0724 116.593 68.6652 117.446 67.8019C118.299 66.9593 118.75 65.6911 118.802 63.9972L118.904 60.6198L119.212 60.6911C118.825 61.8786 118.093 62.8179 117.018 63.509C115.943 64.1795 114.683 64.4928 113.237 64.449C111.853 64.4071 110.644 64.0397 109.61 63.3468C108.577 62.6332 107.79 61.6686 107.248 60.453C106.706 59.2374 106.459 57.8342 106.507 56.2436C106.556 54.6324 106.898 53.2264 107.534 52.0258C108.17 50.8251 109.035 49.9106 110.129 49.2821C111.245 48.6335 112.525 48.3311 113.971 48.3749C115.459 48.4199 116.687 48.8189 117.657 49.572C118.647 50.3256 119.287 51.3788 119.577 52.7315L119.297 52.7541L119.416 48.8189L121.74 48.8892L121.281 64.0723C121.212 66.3239 120.487 68.0801 119.105 69.3408C117.723 70.6016 115.865 71.1966 113.531 71.126ZM113.921 62.3298C115.47 62.3767 116.716 61.8768 117.657 60.8301C118.599 59.7835 119.097 58.3409 119.153 56.5024C119.207 54.7052 118.795 53.2764 117.918 52.2161C117.041 51.135 115.828 50.5711 114.278 50.5242C112.708 50.4766 111.453 50.9659 110.512 51.9919C109.592 53.0185 109.104 54.4511 109.049 56.2896C108.994 58.0867 109.405 59.5362 110.282 60.6379C111.159 61.7189 112.372 62.2829 113.921 62.3298Z" fill="white"/>
<path d="M130.404 64.274L129.249 48.5063L131.567 48.3364L131.862 52.3556L132.016 52.3443L132.877 64.0928L130.404 64.274ZM132.275 55.8688L131.599 52.1573C131.871 50.7904 132.456 49.7218 133.353 48.9516C134.25 48.1813 135.317 47.7509 136.553 47.6603C137.069 47.6225 137.422 47.6381 137.613 47.7069L137.788 50.0875C137.682 50.0539 137.536 50.0438 137.351 50.0574C137.164 50.0504 136.936 50.0567 136.668 50.0763C135.102 50.1911 133.941 50.7527 133.186 51.7613C132.45 52.7477 132.146 54.1169 132.275 55.8688Z" fill="white"/>
<path d="M156.287 61.0374C156.146 60.7053 156.016 60.3188 155.898 59.8779C155.8 59.4334 155.691 58.865 155.571 58.1726L155.418 58.1991L154.128 50.746C153.923 49.5649 153.498 48.7471 152.853 48.2925C152.225 47.814 151.31 47.6788 150.109 47.8869C148.928 48.0915 148.023 48.4998 147.395 49.112C146.784 49.7003 146.513 50.4393 146.583 51.329L144.231 51.7364C144.072 50.2118 144.499 48.9214 145.511 47.8651C146.524 46.8088 147.967 46.1184 149.841 45.794C151.775 45.4589 153.29 45.6685 154.385 46.4226C155.481 47.1767 156.187 48.4701 156.505 50.3028L157.801 57.7864C157.878 58.2344 157.99 58.6975 158.136 59.1757C158.278 59.6334 158.446 60.1182 158.639 60.63L156.287 61.0374ZM150.995 62.2686C149.386 62.5473 148.036 62.3825 146.945 61.7745C145.871 61.1425 145.216 60.1444 144.979 58.78C144.743 57.4157 145.028 56.2757 145.834 55.36C146.64 54.4443 147.913 53.6785 149.652 53.0627L154.931 51.2047L155.28 53.2207L150.347 54.8931C149.238 55.2738 148.426 55.7292 147.909 56.2591C147.393 56.789 147.205 57.4612 147.346 58.2758C147.484 59.0699 147.852 59.6248 148.452 59.9404C149.073 60.2524 149.912 60.3168 150.971 60.1334C152.336 59.8971 153.392 59.3994 154.142 58.6404C154.908 57.8574 155.205 56.9671 155.032 55.9693L155.805 58.0692C155.659 59.1642 155.157 60.0796 154.298 60.8156C153.46 61.548 152.359 62.0323 150.995 62.2686Z" fill="white"/>
<path d="M175.053 56.6036C173.626 57.0255 172.324 57.0333 171.148 56.6268C169.972 56.2203 169.018 55.4356 168.286 54.2727L168.744 54.0726L171.662 63.9421L169.284 64.6454L162.999 43.3901L165.229 42.7308L166.275 46.2684L165.921 46.2759C165.952 44.9953 166.396 43.8727 167.253 42.9081C168.104 41.9237 169.223 41.2264 170.611 40.8162C171.958 40.4177 173.224 40.3989 174.409 40.7599C175.613 41.1151 176.665 41.7952 177.566 42.8004C178.466 43.8056 179.148 45.0911 179.611 46.6567C180.08 48.2422 180.203 49.7145 179.98 51.0735C179.757 52.4326 179.226 53.5915 178.389 54.5502C177.552 55.5089 176.44 56.1934 175.053 56.6036ZM174.08 54.6282C175.587 54.1828 176.614 53.3188 177.161 52.0363C177.703 50.7339 177.707 49.181 177.173 47.3775C176.646 45.5939 175.807 44.3227 174.656 43.5639C173.499 42.7853 172.167 42.6187 170.661 43.0641C169.155 43.5095 168.121 44.3863 167.56 45.6945C166.992 46.9829 166.975 48.5289 167.509 50.3323C168.03 52.0962 168.879 53.3644 170.056 54.1372C171.233 54.9099 172.574 55.0735 174.08 54.6282Z" fill="white"/>
<path d="M189.41 51.4197L180.543 30.9367L182.819 29.9514L191.686 50.4344L189.41 51.4197ZM199.794 46.9244L195.68 37.4226C195.204 36.3226 194.572 35.6166 193.784 35.3047C192.996 34.9928 192.061 35.0709 190.98 35.5389C190.032 35.9494 189.278 36.5234 188.719 37.2608C188.179 37.9901 187.861 38.8149 187.764 39.7352C187.686 40.6472 187.86 41.5964 188.287 42.5826L186.427 39.3004C186.452 38.0059 186.832 36.8281 187.566 35.7671C188.319 34.6979 189.341 33.8841 190.63 33.3258C192.147 32.669 193.55 32.5797 194.838 33.058C196.137 33.5092 197.09 34.4365 197.698 35.8399L202.07 45.9392L199.794 46.9244Z" fill="white"/>
<path d="M216.053 38.6943C214.749 39.4532 213.421 39.8201 212.067 39.795C210.703 39.7519 209.423 39.3609 208.228 38.6219C207.033 37.8828 206.029 36.8167 205.219 35.4235C204.408 34.0303 203.972 32.6456 203.913 31.2695C203.861 29.8651 204.172 28.572 204.847 27.39C205.522 26.208 206.521 25.2324 207.842 24.4631C209.111 23.725 210.37 23.3625 211.621 23.3756C212.89 23.3784 214.066 23.7344 215.148 24.4435C216.248 25.1423 217.193 26.1705 217.984 27.528C218.087 27.7066 218.177 27.8815 218.253 28.0526C218.347 28.2134 218.433 28.4024 218.511 28.6196L207.232 35.1845L206.187 33.3894L216.154 27.5886L216.034 28.9854C215.078 27.3421 213.979 26.296 212.737 25.8469C211.503 25.3697 210.225 25.5157 208.903 26.285C207.545 27.075 206.722 28.1877 206.434 29.623C206.153 31.03 206.475 32.5283 207.4 34.118C208.346 35.7435 209.516 36.8083 210.909 37.3125C212.31 37.7884 213.707 37.6209 215.1 36.8101C215.975 36.3007 216.634 35.6661 217.077 34.9064C217.509 34.1288 217.669 33.2944 217.557 32.4032L219.593 31.2181C219.874 32.7283 219.701 34.1563 219.073 35.5019C218.453 36.8193 217.447 37.8835 216.053 38.6943Z" fill="white"/>
<path d="M228.987 30.0522L219.699 17.2583L221.58 15.8924L223.948 19.1536L224.073 19.0625L230.994 28.5952L228.987 30.0522ZM226.15 21.9223L223.62 19.1236C223.132 17.818 223.066 16.6017 223.422 15.4745C223.779 14.3474 224.459 13.4196 225.462 12.6911C225.88 12.3876 226.189 12.2146 226.388 12.1722L227.79 14.1039C227.682 14.1311 227.553 14.1994 227.403 14.3087C227.24 14.4012 227.05 14.5264 226.833 14.6842C225.562 15.607 224.871 16.6959 224.76 17.9508C224.654 19.1769 225.118 20.5008 226.15 21.9223Z" fill="white"/>
</g>
<defs>
<filter id="filter0_d_25_79" x="1.33789" y="8.29008" width="238.448" height="71.0638" filterUnits="userSpaceOnUse" color-interpolation-filters="sRGB">
<feFlood flood-opacity="0" result="BackgroundImageFix"/>
<feColorMatrix in="SourceAlpha" type="matrix" values="0 0 0 0 0 0 0 0 0 0 0 0 0 0 0 0 0 0 127 0" result="hardAlpha"/>
<feOffset dy="4"/>
<feGaussianBlur stdDeviation="2"/>
<feComposite in2="hardAlpha" operator="out"/>
<feColorMatrix type="matrix" values="0 0 0 0 0 0 0 0 0 0 0 0 0 0 0 0 0 0 0.25 0"/>
<feBlend mode="normal" in2="BackgroundImageFix" result="effect1_dropShadow_25_79"/>
<feBlend mode="normal" in="SourceGraphic" in2="effect1_dropShadow_25_79" result="shape"/>
</filter>
</defs>
</svg>
