<svg width="154" height="38" viewBox="0 0 154 38" fill="none" xmlns="http://www.w3.org/2000/svg">
<g filter="url(#filter0_d_25_52)">
<path d="M11.153 22.6007L4.55 0.280738H7.154L13.075 20.8957H12.61L18.407 0.280738H21.507L27.335 20.8957H26.87L32.76 0.280738H35.209L28.606 22.6007H25.506L19.709 2.60574H20.081L14.253 22.6007H11.153ZM46.6875 22.9107C45.1788 22.9107 43.8458 22.5594 42.6885 21.8567C41.5311 21.1334 40.6218 20.1517 39.9605 18.9117C39.2991 17.6717 38.9685 16.2457 38.9685 14.6337C38.9685 13.0217 39.2888 11.6061 39.9295 10.3867C40.5908 9.14674 41.5105 8.18574 42.6885 7.50374C43.8665 6.82174 45.2201 6.48074 46.7495 6.48074C48.2168 6.48074 49.4878 6.80107 50.5625 7.44174C51.6578 8.0824 52.4948 8.9814 53.0735 10.1387C53.6728 11.2961 53.9725 12.6601 53.9725 14.2307C53.9725 14.4374 53.9621 14.6337 53.9415 14.8197C53.9415 15.0057 53.9208 15.2124 53.8795 15.4397H40.8285V13.3627H52.3605L51.5545 14.5097C51.5545 12.6084 51.1308 11.1514 50.2835 10.1387C49.4568 9.1054 48.2788 8.58874 46.7495 8.58874C45.1788 8.58874 43.9078 9.1364 42.9365 10.2317C41.9858 11.3064 41.5105 12.7634 41.5105 14.6027C41.5105 16.4834 41.9858 17.9921 42.9365 19.1287C43.9078 20.2447 45.1995 20.8027 46.8115 20.8027C47.8241 20.8027 48.7128 20.5857 49.4775 20.1517C50.2421 19.6971 50.8001 19.0564 51.1515 18.2297H53.5075C52.9908 19.6764 52.1228 20.8234 50.9035 21.6707C49.7048 22.4974 48.2995 22.9107 46.6875 22.9107ZM71.9975 22.6007V18.9117L72.3075 19.0047C71.9149 20.2034 71.1915 21.1541 70.1375 21.8567C69.1042 22.5594 67.8642 22.9107 66.4175 22.9107C64.9915 22.9107 63.7412 22.5697 62.6665 21.8877C61.6125 21.2057 60.7859 20.2551 60.1865 19.0357C59.6079 17.8164 59.3185 16.3904 59.3185 14.7577C59.3185 13.1044 59.6182 11.6577 60.2175 10.4177C60.8169 9.17774 61.6539 8.21674 62.7285 7.53474C63.8032 6.85274 65.0639 6.51174 66.5105 6.51174C67.9985 6.51174 69.2489 6.8734 70.2615 7.59674C71.2742 8.32007 71.9665 9.34307 72.3385 10.6657L71.8425 10.7277V0.280738H74.3225V22.6007H71.9975ZM66.8825 20.7407C68.4739 20.7407 69.7139 20.2034 70.6025 19.1287C71.5119 18.0334 71.9665 16.5454 71.9665 14.6647C71.9665 12.8254 71.5119 11.3684 70.6025 10.2937C69.6932 9.21907 68.4532 8.68174 66.8825 8.68174C65.3119 8.68174 64.0822 9.21907 63.1935 10.2937C62.3049 11.3684 61.8605 12.8564 61.8605 14.7577C61.8605 16.6177 62.3049 18.0851 63.1935 19.1597C64.0822 20.2137 65.3119 20.7407 66.8825 20.7407ZM93.5873 22.6007V18.9117L93.8973 19.0047C93.5047 20.2034 92.7813 21.1541 91.7273 21.8567C90.694 22.5594 89.454 22.9107 88.0073 22.9107C86.5813 22.9107 85.331 22.5697 84.2563 21.8877C83.2023 21.2057 82.3757 20.2551 81.7763 19.0357C81.1977 17.8164 80.9083 16.3904 80.9083 14.7577C80.9083 13.1044 81.208 11.6577 81.8073 10.4177C82.4067 9.17774 83.2437 8.21674 84.3183 7.53474C85.393 6.85274 86.6537 6.51174 88.1003 6.51174C89.5883 6.51174 90.8387 6.8734 91.8513 7.59674C92.864 8.32007 93.5563 9.34307 93.9283 10.6657L93.4323 10.7277V0.280738H95.9123V22.6007H93.5873ZM88.4723 20.7407C90.0637 20.7407 91.3037 20.2034 92.1923 19.1287C93.1017 18.0334 93.5563 16.5454 93.5563 14.6647C93.5563 12.8254 93.1017 11.3684 92.1923 10.2937C91.283 9.21907 90.043 8.68174 88.4723 8.68174C86.9017 8.68174 85.672 9.21907 84.7833 10.2937C83.8947 11.3684 83.4503 12.8564 83.4503 14.7577C83.4503 16.6177 83.8947 18.0851 84.7833 19.1597C85.672 20.2137 86.9017 20.7407 88.4723 20.7407ZM103.676 22.6007V6.79074H106.156V22.6007H103.676ZM103.49 3.19474V0.280738H106.342V3.19474H103.49ZM113.913 22.6007V6.79074H116.238V10.5107H116.393V22.6007H113.913ZM125.228 22.6007V12.2467C125.228 11.0481 124.929 10.1491 124.329 9.54974C123.73 8.9504 122.841 8.65074 121.663 8.65074C120.63 8.65074 119.71 8.87807 118.904 9.33274C118.119 9.7874 117.499 10.4177 117.044 11.2237C116.61 12.0297 116.393 12.9701 116.393 14.0447L115.99 10.2937C116.528 9.11574 117.344 8.18574 118.439 7.50374C119.555 6.82174 120.816 6.48074 122.221 6.48074C123.875 6.48074 125.197 6.95607 126.189 7.90674C127.202 8.83674 127.708 10.0664 127.708 11.5957V22.6007H125.228ZM141.554 29.2657C139.673 29.2657 138.103 28.8214 136.842 27.9327C135.602 27.0647 134.848 25.9074 134.579 24.4607H136.935C137.162 25.2874 137.669 25.9384 138.454 26.4137C139.26 26.9097 140.345 27.1577 141.709 27.1577C143.321 27.1577 144.54 26.7134 145.367 25.8247C146.194 24.9567 146.607 23.6754 146.607 21.9807V18.6017L146.917 18.6637C146.566 19.8624 145.863 20.8234 144.809 21.5467C143.755 22.2494 142.505 22.6007 141.058 22.6007C139.673 22.6007 138.454 22.2701 137.4 21.6087C136.346 20.9267 135.53 19.9864 134.951 18.7877C134.372 17.5891 134.083 16.1941 134.083 14.6027C134.083 12.9907 134.383 11.5751 134.982 10.3557C135.581 9.1364 136.418 8.19607 137.493 7.53474C138.588 6.85274 139.859 6.51174 141.306 6.51174C142.794 6.51174 144.034 6.8734 145.026 7.59674C146.039 8.32007 146.71 9.3534 147.041 10.6967L146.762 10.7277V6.79074H149.087V21.9807C149.087 24.2334 148.415 26.0107 147.072 27.3127C145.729 28.6147 143.889 29.2657 141.554 29.2657ZM141.678 20.4617C143.228 20.4617 144.458 19.9244 145.367 18.8497C146.276 17.7751 146.731 16.3181 146.731 14.4787C146.731 12.6807 146.276 11.2651 145.367 10.2317C144.458 9.17774 143.228 8.65074 141.678 8.65074C140.107 8.65074 138.867 9.17774 137.958 10.2317C137.069 11.2857 136.625 12.7324 136.625 14.5717C136.625 16.3697 137.08 17.8061 137.989 18.8807C138.898 19.9347 140.128 20.4617 141.678 20.4617Z" fill="white"/>
</g>
<defs>
<filter id="filter0_d_25_52" x="0.549805" y="0.280731" width="152.537" height="36.985" filterUnits="userSpaceOnUse" color-interpolation-filters="sRGB">
<feFlood flood-opacity="0" result="BackgroundImageFix"/>
<feColorMatrix in="SourceAlpha" type="matrix" values="0 0 0 0 0 0 0 0 0 0 0 0 0 0 0 0 0 0 127 0" result="hardAlpha"/>
<feOffset dy="4"/>
<feGaussianBlur stdDeviation="2"/>
<feComposite in2="hardAlpha" operator="out"/>
<feColorMatrix type="matrix" values="0 0 0 0 0 0 0 0 0 0 0 0 0 0 0 0 0 0 0.25 0"/>
<feBlend mode="normal" in2="BackgroundImageFix" result="effect1_dropShadow_25_52"/>
<feBlend mode="normal" in="SourceGraphic" in2="effect1_dropShadow_25_52" result="shape"/>
</filter>
</defs>
</svg>
